#!OML:ASF X:\für Bonn\!DataBase\2005_08_10_Bjorn_Final\c3d\bjorn.ASF
:FULLY-SPECIFIED
:DEGREES
31
root 1.2872 17.5105 3.2553 -180.76 -5.29943 -182.433
lowerback 16.5078 0.842582 1.76021
upperback 8.31859 0.0520706 -0.342267
thorax -0.385879 -0.464304 -1.3575
lowerneck -15.9666 -2.72453 2.20003
upperneck 8.90315 -4.09345 -0.313907
head 5.22072 -1.94704 -0.817842
rclavicle 3.77691e-015 -6.36111e-015
rhumerus 77.6141 -1.77073 -76.8011
rradius 5.16741
rwrist 47.6924
rhand -16.4391 8.02001
rfingers 7.12502
rthumb 9.77651 -21.7331
lclavicle 3.77691e-015 -6.36111e-015
lhumerus 79.4412 -14.4294 67.3778
lradius 8.8162
lwrist -59.7047
lhand -31.3558 -0.902696
lfingers 7.12502
lthumb -4.62669 29.0268
rfemur -29.0164 -12.1272 15.4591
rtibia 65.2009
rfoot -29.3639 8.22964
rtoes -26.9485
lfemur -31.8321 2.40912 -22.145
ltibia 68.6201
lfoot -21.0526 1.09437
ltoes -29.0778
32
root 1.28978 17.3399 3.29255 -180.748 -5.39636 -182.487
lowerback 17.059 0.885345 1.7199
upperback 8.56951 0.0277427 -0.336425
thorax -0.40547 -0.509969 -1.32534
lowerneck -16.1471 -2.70742 2.3498
upperneck 8.3625 -4.0989 -0.38936
head 5.07502 -1.95943 -0.862107
rclavicle -2.24627e-014 2.38542e-015
rhumerus 78.0742 -2.08064 -76.6793
rradius 5.4057
rwrist 48.3665
rhand -16.7095 8.05559
rfingers 7.12502
rthumb 9.51566 -21.7095
lclavicle -2.24627e-014 2.38542e-015
lhumerus 80.1446 -14.1003 67.0651
lradius 8.743
lwrist -59.6535
lhand -31.9848 -1.26561
lfingers 7.12502
lthumb -5.23408 28.6498
rfemur -30.4855 -12.1792 15.3695
rtibia 67.6405
rfoot -29.9813 8.35473
rtoes -27.3621
lfemur -33.1239 2.39939 -22.2503
ltibia 70.7005
lfoot -21.5637 0.879424
ltoes -27.8466
33
root 1.29219 17.1616 3.32965 -180.697 -5.50381 -182.541
lowerback 17.531 0.903508 1.69366
upperback 8.83294 -0.0303578 -0.336057
thorax -0.369624 -0.571917 -1.30114
lowerneck -16.2969 -2.67547 2.40937
upperneck 7.78539 -4.07996 -0.369788
head 4.91745 -1.95844 -0.859366
rclavicle -7.7526e-015 5.1684e-015
rhumerus 78.5106 -2.32107 -76.5932
rradius 5.73027
rwrist 49.0144
rhand -17.0117 8.0838
rfingers 7.12502
rthumb 9.2241 -21.6944
lclavicle -7.7526e-015 5.1684e-015
lhumerus 80.9133 -13.701 66.7352
lradius 8.5875
lwrist -59.5581
lhand -32.5032 -1.62681
lfingers 7.12502
lthumb -5.73456 28.2756
rfemur -32.0119 -12.2429 15.2778
rtibia 70.112
rfoot -30.6006 8.47364
rtoes -27.8346
lfemur -34.4963 2.37085 -22.3657
ltibia 72.8608
lfoot -22.1484 0.673518
ltoes -26.6507
34
root 1.29529 16.9775 3.36511 -180.635 -5.61661 -182.544
lowerback 17.9384 0.924816 1.74505
upperback 9.10276 -0.0736276 -0.334371
thorax -0.290303 -0.62351 -1.32204
lowerneck -16.2938 -2.65758 2.44378
upperneck 7.08861 -4.0821 -0.272372
head 4.70031 -1.96709 -0.82643
rclavicle 9.34288e-015 7.55382e-015
rhumerus 78.8899 -2.61413 -76.5145
rradius 6.11322
rwrist 49.5998
rhand -17.2848 8.13959
rfingers 7.12502
rthumb 8.96055 -21.6501
lclavicle 9.34288e-015 7.55382e-015
lhumerus 81.5629 -13.402 66.4206
lradius 8.71183
lwrist -59.4807
lhand -32.7248 -1.87297
lfingers 7.12502
lthumb -5.94851 28.0235
rfemur -33.5639 -12.3199 15.242
rtibia 72.5952
rfoot -31.2021 8.61307
rtoes -28.3587
lfemur -35.9108 2.38296 -22.4275
ltibia 75.0993
lfoot -22.7984 0.490638
ltoes -25.7272
35
root 1.2979 16.7841 3.40137 -180.554 -5.74311 -182.546
lowerback 18.3284 0.936402 1.78314
upperback 9.35527 -0.128529 -0.318974
thorax -0.219719 -0.68048 -1.31861
lowerneck -16.2537 -2.63028 2.47479
upperneck 6.39629 -4.07145 -0.180061
head 4.47949 -1.97163 -0.793249
rclavicle -1.68967e-014 -7.95139e-015
rhumerus 79.3204 -2.87838 -76.4246
rradius 6.39331
rwrist 49.9855
rhand -17.5759 8.21093
rfingers 7.12502
rthumb 8.67966 -21.5906
lclavicle -1.68967e-014 -7.95139e-015
lhumerus 82.0967 -13.11 66.1376
lradius 8.98163
lwrist -59.3532
lhand -32.8107 -2.09774
lfingers 7.12502
lthumb -6.03144 27.7964
rfemur -35.16 -12.436 15.2063
rtibia 75.0956
rfoot -31.723 8.7997
rtoes -28.7
lfemur -37.3913 2.4004 -22.4917
ltibia 77.3964
lfoot -23.4792 0.312281
ltoes -25.2139
36
root 1.30124 16.5879 3.43512 -180.473 -5.86605 -182.549
lowerback 18.6848 0.947135 1.83822
upperback 9.61673 -0.184943 -0.317175
thorax -0.120622 -0.737713 -1.33895
lowerneck -16.1836 -2.60295 2.46176
upperneck 5.69246 -4.06284 0.00882983
head 4.25404 -1.9743 -0.72314
rclavicle 1.55052e-014 7.95139e-016
rhumerus 79.755 -3.16449 -76.3554
rradius 6.6722
rwrist 50.1742
rhand -17.7507 8.35455
rfingers 7.12502
rthumb 8.51097 -21.4539
lclavicle 1.55052e-014 7.95139e-016
lhumerus 82.6694 -12.8022 65.8345
lradius 9.1871
lwrist -59.1779
lhand -32.7835 -2.38871
lfingers 7.12502
lthumb -6.0052 27.5062
rfemur -36.7466 -12.5441 15.1551
rtibia 77.5931
rfoot -32.2281 9.016
rtoes -29.1588
lfemur -38.8652 2.40422 -22.5391
ltibia 79.7068
lfoot -24.1523 0.0471756
ltoes -24.6634
37
root 1.30391 16.3892 3.46834 -180.393 -6.00182 -182.534
lowerback 19.027 0.949419 1.8888
upperback 9.88766 -0.256691 -0.287957
thorax -0.00326104 -0.804616 -1.32505
lowerneck -16.1227 -2.57028 2.40083
upperneck 4.96983 -4.04155 0.21625
head 4.02635 -1.97342 -0.639212
rclavicle -1.98785e-015 -1.98785e-015
rhumerus 80.2407 -3.42374 -76.2683
rradius 6.88781
rwrist 50.1627
rhand -17.8544 8.54419
rfingers 7.12502
rthumb 8.41087 -21.2683
lclavicle -1.98785e-015 -1.98785e-015
lhumerus 83.2389 -12.4628 65.5616
lradius 9.3535
lwrist -59.0065
lhand -32.715 -2.58434
lfingers 7.12502
lthumb -5.93908 27.3124
rfemur -38.3291 -12.6935 15.1044
rtibia 80.0719
rfoot -32.6313 9.39101
rtoes -29.2738
lfemur -40.3563 2.41169 -22.566
ltibia 82.0152
lfoot -24.7029 -0.143581
ltoes -24.6898
38
root 1.30674 16.1907 3.49958 -180.295 -6.13542 -182.52
lowerback 19.3835 0.948012 1.98352
upperback 10.1051 -0.31396 -0.292596
thorax 0.0514002 -0.857694 -1.37346
lowerneck -15.9774 -2.5365 2.39716
upperneck 4.2729 -4.02429 0.397712
head 3.79237 -1.97558 -0.572078
rclavicle 1.64991e-014 -7.55382e-015
rhumerus 80.5721 -3.71999 -76.2129
rradius 7.15699
rwrist 49.991
rhand -17.8689 8.77987
rfingers 7.12502
rthumb 8.39683 -21.0332
lclavicle 1.64991e-014 -7.55382e-015
lhumerus 83.749 -12.2196 65.2756
lradius 9.46839
lwrist -58.7662
lhand -32.6759 -2.75408
lfingers 7.12502
lthumb -5.9013 27.1437
rfemur -39.9405 -12.8275 15.0298
rtibia 82.5516
rfoot -32.9051 9.94038
rtoes -28.988
lfemur -41.8754 2.4079 -22.5677
ltibia 84.3002
lfoot -25.1164 -0.409308
ltoes -24.7747
39
root 1.30867 15.9889 3.52987 -180.228 -6.26162 -182.487
lowerback 19.7664 0.948183 2.09965
upperback 10.3521 -0.375962 -0.2824
thorax 0.126312 -0.916636 -1.41745
lowerneck -15.8627 -2.52758 2.24878
upperneck 3.23796 -4.02526 0.729795
head 3.87995 -1.98388 -0.496953
rclavicle 1.35174e-014 -1.51076e-014
rhumerus 80.9249 -4.00629 -76.1536
rradius 7.43372
rwrist 49.7224
rhand -17.8257 9.00771
rfingers 7.12502
rthumb 8.43855 -20.8037
lclavicle 1.35174e-014 -1.51076e-014
lhumerus 84.3096 -11.9139 64.9952
lradius 9.51652
lwrist -58.4637
lhand -32.6058 -2.9381
lfingers 7.12502
lthumb -5.83368 26.9616
rfemur -41.495 -12.9777 14.9404
rtibia 84.9977
rfoot -33.0361 10.7049
rtoes -28.4808
lfemur -43.3829 2.39406 -22.5275
ltibia 86.5897
lfoot -25.438 -0.775625
ltoes -24.7908
40
root 1.31161 15.7817 3.55803 -180.174 -6.38525 -182.436
lowerback 20.1617 0.943295 2.21008
upperback 10.58 -0.441997 -0.252773
thorax 0.175622 -0.977654 -1.43609
lowerneck -15.8205 -2.50449 2.12669
upperneck 2.65866 -4.0078 0.965112
head 3.6718 -1.98707 -0.386864
rclavicle 3.37934e-015 7.15625e-015
rhumerus 81.247 -4.25811 -76.0824
rradius 7.70143
rwrist 49.4196
rhand -17.7206 9.26891
rfingers 7.12502
rthumb 8.53999 -20.5384
lclavicle 3.37934e-015 7.15625e-015
lhumerus 84.8385 -11.5877 64.7415
lradius 9.51139
lwrist -58.0581
lhand -32.6244 -3.11958
lfingers 7.12502
lthumb -5.8516 26.7796
rfemur -43.0439 -13.1686 14.862
rtibia 87.4442
rfoot -33.0994 11.482
rtoes -27.9421
lfemur -44.9009 2.39734 -22.445
ltibia 88.8864
lfoot -25.6805 -1.20493
ltoes -24.803
41
root 1.31442 15.5678 3.58555 -180.148 -6.52019 -182.385
lowerback 20.5261 0.941837 2.33291
upperback 10.8713 -0.519862 -0.214288
thorax 0.311154 -1.04971 -1.45131
lowerneck -15.8496 -2.47468 2.01537
upperneck 2.0318 -3.98814 1.16657
head 3.46109 -1.99452 -0.291712
rclavicle -5.1684e-015 -1.19271e-015
rhumerus 81.6474 -4.53588 -76.0091
rradius 7.94609
rwrist 49.2131
rhand -17.7124 9.53543
rfingers 7.12502
rthumb 8.54786 -20.2715
lclavicle -5.1684e-015 -1.19271e-015
lhumerus 85.4504 -11.2083 64.4878
lradius 9.46693
lwrist -57.6225
lhand -32.646 -3.29084
lfingers 7.12502
lthumb -5.87245 26.6078
rfemur -44.5648 -13.3918 14.7694
rtibia 89.8833
rfoot -33.1795 12.2723
rtoes -27.5125
lfemur -46.4376 2.41052 -22.3474
ltibia 91.2238
lfoot -25.8665 -1.68286
ltoes -24.8326
42
root 1.31634 15.3482 3.61137 -180.151 -6.65657 -182.333
lowerback 20.9034 0.931751 2.51473
upperback 11.152 -0.598125 -0.220473
thorax 0.430918 -1.11766 -1.54678
lowerneck -15.8116 -2.45627 1.93906
upperneck 1.40877 -3.98905 1.38799
head 3.2399 -2.0118 -0.197294
rclavicle -5.96354e-016 -1.03368e-014
rhumerus 81.9961 -4.82103 -75.9957
rradius 8.18256
rwrist 49.0772
rhand -17.7236 9.75545
rfingers 7.12502
rthumb 8.53705 -20.052
lclavicle -5.96354e-016 -1.03368e-014
lhumerus 86.0719 -10.8814 64.1865
lradius 9.36109
lwrist -57.098
lhand -32.75 -3.55297
lfingers 7.12502
lthumb -5.97281 26.3428
rfemur -46.0603 -13.6859 14.659
rtibia 92.3323
rfoot -33.3155 12.9944
rtoes -27.4304
lfemur -47.9686 2.4243 -22.2374
ltibia 93.5912
lfoot -26.0369 -2.16112
ltoes -24.849
43
root 1.31798 15.1226 3.63657 -180.202 -6.79481 -182.279
lowerback 21.313 0.922195 2.6562
upperback 11.4345 -0.686436 -0.171016
thorax 0.53805 -1.19638 -1.55757
lowerneck -15.8284 -2.45334 1.75851
upperneck 0.90048 -3.98703 1.57168
head 3.07239 -2.02674 -0.0997724
rclavicle 1.15295e-014 -1.59028e-015
rhumerus 82.3242 -5.06731 -75.907
rradius 8.4006
rwrist 49.1004
rhand -17.8277 9.96717
rfingers 7.12502
rthumb 8.4366 -19.8443
lclavicle 1.15295e-014 -1.59028e-015
lhumerus 86.6247 -10.5167 63.9775
lradius 9.29078
lwrist -56.5488
lhand -32.7201 -3.73358
lfingers 7.12502
lthumb -5.94395 26.163
rfemur -47.5323 -14.0589 14.5463
rtibia 94.784
rfoot -33.4621 13.6072
rtoes -27.6959
lfemur -49.488 2.49813 -22.1145
ltibia 96.0034
lfoot -26.2322 -2.74786
ltoes -24.8559
44
root 1.31987 14.891 3.66045 -180.272 -6.92338 -182.225
lowerback 21.7422 0.913914 2.8385
upperback 11.6839 -0.757596 -0.16329
thorax 0.602172 -1.26093 -1.63796
lowerneck -15.7691 -2.46118 1.66871
upperneck 0.436404 -4.00958 1.74477
head 2.90473 -2.05176 -0.0230756
rclavicle 2.127e-014 5.96354e-015
rhumerus 82.599 -5.35058 -75.8644
rradius 8.5325
rwrist 49.1892
rhand -18.0421 10.1792
rfingers 7.12502
rthumb 8.22969 -19.6405
lclavicle 2.127e-014 5.96354e-015
lhumerus 87.1584 -10.2388 63.7288
lradius 9.20502
lwrist -55.9415
lhand -32.6643 -3.92054
lfingers 7.12502
lthumb -5.89013 25.9776
rfemur -49.0272 -14.4981 14.4343
rtibia 97.2513
rfoot -33.6329 14.1058
rtoes -28.3268
lfemur -51.0186 2.65749 -21.9799
ltibia 98.4341
lfoot -26.4481 -3.3676
ltoes -24.8015
